<svg width="100" height="100" viewBox="0 0 100 100" xmlns="http://www.w3.org/2000/svg">
  <style>
    rect{width:100px;height:100px}path{fill:#000}#a{animation:b 2s steps(19, start) infinite}@keyframes b{0%,to{opacity:0}50%{opacity:1}}
  </style>
  <rect fill="#FF0"/><rect fill="#F00" id="a"/>
  <path d="m15 41v2h2v-2zm0 2h-3v1h-2v2h3v2h-3v8h3v2H10v1h7v-1H15V56h3V48h-3v-2h3v-2h-3zm3 3v2h4v6h1v-6h4v10h1V46h-5v-5h-1v5zm9 12h-4v1h4zm-5-4h-2v4h2zm-2 4h-2v1h2zm-8-9h1v2h-1zm3 0h2v2h-2zm-3 4h1v1h-1zm3 0h2v1h-2zm18-12v2h2v-2zm0 2h-1v1h-2v2h2v8h1v-1h4v1h1v-8h2v-2h-2v-1h-1v1h-4zm5 11v2h2v-2zm4-13v7h6V46h-5v-2h5v-1h-5v-2zm-9 5h4v2h-4zm0 3h4v2h-4zm9 0v5h6v-1h-5v-2h5V49zm-10 7v2h1v-2zm0 2h-2v1h2zm3-2v3h8v-1h-6v-2zm10 0v2h2v-2zm2 2v1h1v-1zm6-17v2h2v-2zm0 2h-1v1h1zm-1 1h-2v2h2zm0 2v3h-2v2h3v8h2v-8h3V48h-1v1h-4v-1h2v-2zm3 0h2v-2h-2zm5-3v15h-2v1H68V58H67V43Zm2 1h3v4h-3zm0 5h3v4h-3zm-12 4v5h2v-5zm7 0v3h1v-3zm5 1h3v4h-3zm16-13v2h-8v3h2v-2h15v2h1v-3h-8v-2zm-5 5v2h7v1h2v-1h1v-2zm7 3h-2v2h-8v2h8v5h-1v1h3v-6h8v-2h-8z"/>
</svg>
